<svg id="svg" version="1.1" xmlns="http://www.w3.org/2000/svg" xmlns:xlink="http://www.w3.org/1999/xlink" width="400" height="400" viewBox="0, 0, 400,400"><g id="svgg"><path id="path0" d="M217.364 91.794 C 210.367 93.316,204.594 98.639,202.176 105.799 C 201.555 107.640,201.513 111.409,201.650 153.199 L 201.800 198.600 198.400 198.600 L 195.000 198.600 195.000 146.200 L 195.000 93.800 193.010 93.674 C 184.794 93.156,173.016 97.208,166.211 102.894 C 157.642 110.054,154.296 118.022,154.466 130.859 C 154.565 138.272,154.637 138.088,148.545 145.948 C 143.139 152.923,142.956 154.596,147.400 156.400 C 150.612 157.704,151.171 159.152,149.446 161.694 C 148.039 163.768,148.178 167.848,149.746 170.494 C 150.906 172.450,151.033 174.797,150.190 178.700 C 149.314 182.758,152.216 184.561,160.400 185.041 C 168.689 185.527,174.497 189.457,177.632 196.700 C 177.942 197.415,178.331 198.000,178.498 198.000 C 178.664 198.000,178.800 198.272,178.800 198.605 C 178.800 198.938,178.967 199.523,179.171 199.905 C 179.375 200.287,179.639 200.915,179.758 201.300 C 179.947 201.910,222.451 202.502,222.870 201.900 C 222.908 201.845,223.043 198.298,223.170 194.019 L 223.400 186.237 226.513 184.619 C 231.489 182.032,234.494 178.726,236.009 174.172 C 236.729 172.011,237.036 171.563,237.933 171.373 C 244.155 170.056,248.126 165.180,248.174 158.800 L 248.200 155.400 250.702 153.046 C 256.780 147.326,257.900 138.053,253.323 131.330 L 252.282 129.800 252.951 126.569 C 254.370 119.721,250.797 112.414,244.530 109.348 C 242.060 108.140,241.896 107.953,241.232 105.600 C 238.486 95.868,227.595 89.568,217.364 91.794 M228.750 97.172 C 237.125 101.409,240.128 110.615,235.952 119.250 C 233.978 123.333,234.962 125.696,237.849 123.805 C 238.839 123.156,241.598 118.015,241.602 116.811 C 241.606 115.652,242.439 113.200,242.828 113.200 C 245.172 113.200,248.800 119.432,248.800 123.458 C 248.800 126.386,248.772 126.402,245.720 125.160 C 243.269 124.163,241.657 127.162,243.827 128.681 C 247.168 131.019,248.309 131.997,249.457 133.502 C 254.599 140.243,251.160 150.193,242.800 152.761 C 238.804 153.988,237.921 155.121,239.631 156.831 C 240.266 157.466,240.858 157.632,242.131 157.531 L 243.800 157.400 243.791 159.678 C 243.780 162.480,242.281 164.894,239.646 166.350 C 237.557 167.505,237.186 167.234,236.423 164.000 C 235.733 161.071,233.789 157.449,232.123 155.986 C 230.495 154.556,230.342 154.544,228.951 155.741 L 227.857 156.682 228.629 157.890 C 229.053 158.555,229.867 159.797,230.438 160.650 C 237.514 171.220,228.155 184.682,215.501 182.132 C 212.273 181.482,212.263 181.482,211.551 182.362 C 210.057 184.206,211.820 185.631,216.310 186.207 C 219.560 186.624,219.640 186.798,219.511 193.140 L 219.400 198.600 212.491 198.709 C 206.757 198.800,205.544 198.720,205.360 198.240 C 205.238 197.921,205.287 190.042,205.469 180.730 L 205.800 163.800 208.457 163.938 C 214.706 164.262,220.005 158.157,217.540 153.474 C 216.159 150.850,213.600 152.067,213.600 155.346 C 213.600 159.475,208.464 161.511,206.201 158.280 C 205.082 156.682,205.327 127.743,206.470 126.526 C 208.184 124.701,212.000 125.732,212.000 128.020 C 212.000 131.343,215.888 132.778,216.652 129.736 C 217.729 125.444,212.588 120.527,207.400 120.889 L 205.800 121.000 205.677 116.000 C 205.483 108.063,206.485 104.522,210.023 100.651 C 214.630 95.610,222.698 94.111,228.750 97.172 M218.538 101.634 C 213.658 103.511,210.149 110.980,213.238 112.917 C 214.321 113.597,215.960 112.922,216.212 111.694 C 216.828 108.690,217.316 107.573,218.419 106.645 C 221.730 103.859,226.670 105.679,227.392 109.950 C 227.886 112.877,230.691 113.792,231.626 111.332 C 233.772 105.688,224.965 99.163,218.538 101.634 M218.868 118.605 C 217.423 120.441,219.062 122.400,222.042 122.400 C 227.683 122.400,228.850 131.321,223.563 134.019 C 219.965 135.855,221.751 139.621,225.396 137.883 C 231.833 134.813,233.412 126.579,228.587 121.238 C 225.704 118.048,220.430 116.618,218.868 118.605 M239.862 133.531 C 238.827 134.675,239.058 135.423,241.051 137.388 C 243.792 140.089,242.720 144.000,239.240 144.000 C 237.044 144.000,235.984 146.583,237.689 147.777 C 240.976 150.080,247.163 145.209,247.191 140.296 C 247.217 135.884,242.049 131.114,239.862 133.531 M212.089 136.623 C 208.966 138.810,213.190 147.302,218.533 149.577 C 224.574 152.149,234.400 147.715,234.400 142.417 C 234.400 140.041,231.301 140.022,229.807 142.389 C 225.939 148.516,217.095 146.905,215.671 139.813 C 214.974 136.340,213.881 135.367,212.089 136.623 M222.767 161.946 C 221.875 162.669,221.863 162.762,222.384 164.934 C 223.590 169.961,219.420 173.462,215.400 170.800 C 212.418 168.825,210.092 171.280,212.700 173.650 C 217.134 177.678,224.585 175.409,226.584 169.422 C 227.569 166.469,226.700 162.617,224.822 161.612 C 223.824 161.078,223.844 161.074,222.767 161.946 M187.600 208.000 C 187.600 208.229,188.800 208.400,190.400 208.400 C 192.000 208.400,193.200 208.571,193.200 208.800 C 193.200 209.029,194.400 209.200,196.000 209.200 C 197.600 209.200,198.800 209.371,198.800 209.600 C 198.800 209.858,203.067 210.000,210.800 210.000 L 222.800 210.000 222.800 208.800 L 222.800 207.600 205.200 207.600 C 193.733 207.600,187.600 207.739,187.600 208.000 M211.105 227.826 C 208.885 229.031,208.800 229.602,208.800 243.400 C 208.800 259.700,208.752 259.600,216.600 259.600 C 222.670 259.600,224.150 258.507,224.658 253.648 C 225.068 249.727,224.782 249.200,222.248 249.200 L 220.112 249.200 219.875 251.491 C 219.598 254.180,218.981 254.800,216.586 254.800 C 213.615 254.800,213.598 254.734,213.613 243.369 C 213.627 231.868,213.592 232.000,216.695 232.000 C 219.091 232.000,219.410 232.322,219.862 235.200 L 220.208 237.400 222.404 237.400 L 224.600 237.400 224.562 234.200 C 224.519 230.513,223.811 228.736,222.013 227.807 C 220.395 226.970,212.657 226.984,211.105 227.826 M231.475 231.458 C 231.136 231.797,231.105 258.088,231.443 258.967 C 231.653 259.514,232.738 259.600,239.443 259.600 L 247.200 259.600 247.200 257.212 L 247.200 254.823 241.900 254.712 L 236.600 254.600 236.478 252.217 C 236.261 247.999,236.214 248.046,240.704 247.914 L 244.600 247.800 244.600 245.600 L 244.600 243.400 240.814 243.284 C 236.437 243.150,236.415 243.131,236.406 239.733 C 236.396 235.828,236.136 236.000,242.063 236.000 L 247.240 236.000 247.120 233.700 L 247.000 231.400 239.375 231.292 C 235.181 231.232,231.626 231.307,231.475 231.458 M254.685 231.449 C 254.528 231.605,254.400 238.003,254.400 245.667 L 254.400 259.600 261.220 259.600 L 268.040 259.600 267.920 257.300 L 267.800 255.000 263.600 254.800 L 259.400 254.600 259.200 243.000 L 259.000 231.400 256.985 231.282 C 255.876 231.217,254.841 231.292,254.685 231.449 M275.084 231.449 C 274.928 231.605,274.800 238.003,274.800 245.667 L 274.800 259.600 281.820 259.600 L 288.840 259.600 288.720 257.300 L 288.600 255.000 284.400 254.800 L 280.200 254.600 280.000 243.000 L 279.800 231.400 277.584 231.283 C 276.365 231.218,275.240 231.293,275.084 231.449 " stroke="none" fill="#77b77f" fill-rule="evenodd"></path><path id="path1" d="M0.000 200.000 L 0.000 400.000 200.000 400.000 L 400.000 400.000 400.000 200.000 L 400.000 0.000 200.000 0.000 L 0.000 0.000 0.000 200.000 M228.510 91.773 C 235.050 94.081,240.918 100.321,242.193 106.323 C 242.428 107.429,242.826 107.812,244.630 108.666 C 251.774 112.049,255.819 121.311,253.181 128.249 C 252.855 129.108,252.982 129.611,253.918 131.144 C 258.517 138.684,257.512 147.271,251.312 153.413 L 248.823 155.878 249.059 157.872 C 249.766 163.841,245.072 170.291,238.775 172.003 C 237.504 172.349,237.276 172.624,236.672 174.539 C 235.314 178.848,231.475 183.190,227.164 185.294 C 223.954 186.861,223.937 186.923,224.295 195.886 C 224.605 203.681,227.494 202.800,201.613 202.800 C 177.527 202.800,178.948 202.946,178.201 200.400 C 175.682 191.819,169.866 187.145,160.510 186.184 C 150.766 185.184,148.130 183.073,149.554 177.416 C 150.351 174.254,149.636 170.411,148.071 169.444 C 147.231 168.925,147.661 163.067,148.645 161.619 C 150.288 159.202,149.663 157.712,146.699 156.983 C 142.728 156.007,142.645 152.537,146.471 147.545 C 154.393 137.212,154.000 138.156,154.000 129.468 C 154.000 112.573,162.836 100.385,178.800 95.260 C 184.147 93.544,193.635 92.362,195.228 93.215 C 195.980 93.617,195.999 94.794,196.099 145.713 L 196.200 197.800 198.400 197.800 L 200.600 197.800 200.800 152.200 C 201.017 102.697,200.856 106.195,203.124 101.749 C 207.584 93.007,219.139 88.466,228.510 91.773 M218.818 96.437 C 210.525 98.063,206.600 103.700,206.600 113.985 L 206.600 120.570 208.448 120.458 C 214.078 120.117,219.396 127.086,216.577 131.111 C 215.138 133.166,211.600 131.534,211.600 128.816 C 211.600 126.583,208.946 125.296,207.235 126.700 C 206.387 127.395,206.382 127.504,206.491 142.557 L 206.600 157.714 207.664 158.508 C 210.127 160.347,213.195 158.140,213.199 154.529 C 213.200 152.501,213.990 151.600,215.767 151.600 C 217.743 151.600,218.600 152.792,218.600 155.542 C 218.600 161.116,213.852 165.317,208.296 164.661 L 206.391 164.437 206.496 181.118 L 206.600 197.800 212.400 197.800 L 218.200 197.800 218.200 192.605 L 218.200 187.410 216.211 187.125 C 211.207 186.410,208.970 184.363,210.689 182.075 C 211.381 181.154,211.747 181.016,213.248 181.111 C 220.152 181.547,222.588 181.404,224.400 180.457 C 232.142 176.411,234.383 166.914,229.214 160.060 C 227.472 157.750,227.250 156.678,228.223 155.289 C 230.300 152.324,234.903 156.427,236.872 163.000 C 237.951 166.600,237.865 166.491,239.123 165.834 C 241.412 164.638,242.935 162.436,243.396 159.658 L 243.685 157.915 242.046 158.192 C 237.165 159.017,236.934 153.410,241.807 152.399 C 252.740 150.129,254.483 135.475,244.474 129.970 C 239.930 127.471,242.221 123.519,247.363 124.987 L 248.526 125.318 248.270 122.870 C 247.942 119.730,246.742 117.202,244.705 115.362 C 242.911 113.741,242.711 113.840,242.218 116.583 C 241.131 122.621,236.708 126.888,234.623 123.911 C 233.722 122.624,233.830 121.977,235.491 118.722 C 241.307 107.326,231.325 93.985,218.818 96.437 M226.200 101.147 C 230.702 103.199,233.783 109.230,231.842 112.192 C 230.502 114.238,226.800 112.868,226.800 110.326 C 226.800 108.016,224.461 106.000,221.782 106.000 C 219.146 106.000,217.607 107.707,217.014 111.289 C 216.326 115.448,211.600 114.590,211.600 110.306 C 211.600 104.797,216.206 100.418,222.000 100.418 C 223.664 100.418,225.176 100.680,226.200 101.147 M225.901 118.350 C 234.067 122.516,234.002 134.502,225.793 138.361 C 221.960 140.163,218.799 136.781,222.025 134.330 C 225.677 131.556,226.096 131.028,226.296 128.941 C 226.630 125.465,224.403 122.805,221.154 122.801 C 218.127 122.798,216.508 119.892,218.451 117.949 C 219.544 116.856,223.378 117.062,225.901 118.350 M243.116 132.761 C 250.774 136.688,248.033 148.800,239.485 148.800 C 235.006 148.800,234.898 144.375,239.350 143.254 C 242.529 142.454,243.042 139.692,240.400 137.600 C 238.223 135.876,238.136 133.648,240.200 132.478 C 241.273 131.870,241.402 131.882,243.116 132.761 M215.137 136.337 C 215.542 136.742,215.989 137.915,216.130 138.944 C 217.138 146.296,224.895 147.925,229.513 141.754 C 232.779 137.390,236.661 141.242,233.491 145.701 C 226.690 155.266,212.060 151.486,210.600 139.787 C 210.173 136.364,213.008 134.208,215.137 136.337 M225.578 161.188 C 227.342 162.132,228.223 167.734,227.050 170.542 C 224.526 176.583,215.382 178.518,211.669 173.796 C 209.351 170.850,212.088 168.208,215.600 170.000 C 220.253 172.374,222.657 169.773,221.386 163.740 C 220.923 161.540,223.409 160.027,225.578 161.188 M224.000 208.748 L 224.000 211.095 222.500 211.343 C 220.590 211.659,181.297 211.669,180.123 211.354 C 179.103 211.080,178.603 209.408,179.000 207.600 L 179.264 206.400 201.632 206.400 L 224.000 206.400 224.000 208.748 M217.123 216.131 C 217.312 219.098,217.109 219.200,211.000 219.200 L 205.697 219.200 205.197 220.408 C 203.413 224.714,197.127 224.794,195.346 220.533 L 194.789 219.200 190.875 219.200 C 186.342 219.200,186.000 219.003,186.000 216.387 C 186.000 213.825,184.937 213.980,201.771 214.095 L 217.000 214.200 217.123 216.131 M115.338 227.322 C 118.062 229.109,119.405 239.776,117.243 242.447 C 116.499 243.365,116.499 243.400,117.243 244.345 C 119.399 247.086,118.064 257.690,115.338 259.478 C 114.190 260.231,104.027 260.795,101.778 260.230 L 100.800 259.985 100.800 243.459 C 100.800 234.370,100.935 226.799,101.099 226.634 C 101.773 225.961,114.177 226.560,115.338 227.322 M222.238 227.218 C 224.443 228.286,225.200 230.102,225.200 234.328 C 225.200 237.996,224.918 238.400,222.353 238.400 C 219.440 238.400,219.201 238.207,219.194 235.857 C 219.185 233.041,218.908 232.727,216.561 232.876 L 214.600 233.000 214.600 243.400 L 214.600 253.800 216.561 253.924 C 218.908 254.073,219.185 253.759,219.194 250.943 C 219.201 248.614,219.454 248.400,222.200 248.400 C 225.172 248.400,225.200 248.439,225.199 252.543 C 225.196 258.965,223.812 260.200,216.618 260.200 C 208.017 260.200,208.000 260.167,208.000 243.279 C 208.000 228.916,208.045 228.690,211.208 227.101 C 213.316 226.042,219.953 226.112,222.238 227.218 M137.955 231.401 C 141.080 233.244,142.304 245.271,139.750 249.036 L 138.700 250.583 139.776 255.152 C 141.016 260.418,141.031 260.384,137.524 260.394 C 134.812 260.401,134.888 260.493,133.600 255.600 L 132.600 251.800 131.100 251.676 L 129.600 251.552 129.600 255.733 C 129.600 260.419,129.613 260.400,126.600 260.400 C 123.356 260.400,123.600 261.603,123.600 245.637 C 123.600 234.756,123.719 231.238,124.100 230.846 C 124.980 229.943,136.247 230.394,137.955 231.401 M159.540 230.755 C 160.348 231.266,167.243 259.266,166.717 259.900 C 166.470 260.197,165.340 260.400,163.931 260.400 C 161.306 260.400,160.871 259.923,160.192 256.300 L 159.911 254.800 156.184 254.800 L 152.457 254.800 151.955 257.045 C 151.679 258.280,151.203 259.540,150.898 259.845 C 150.194 260.549,146.255 260.590,145.684 259.900 C 145.163 259.270,151.773 232.143,152.701 231.100 C 153.380 230.337,158.476 230.080,159.540 230.755 M177.520 230.880 C 178.342 231.702,178.195 259.840,177.367 260.157 C 176.258 260.583,172.578 260.418,172.080 259.920 C 171.266 259.106,171.406 231.851,172.229 231.029 C 172.987 230.270,176.803 230.163,177.520 230.880 M188.251 230.706 C 188.500 230.868,190.300 234.150,192.251 238.000 L 195.800 245.000 195.910 238.229 C 196.036 230.479,196.067 230.400,198.969 230.400 C 202.152 230.400,202.000 229.644,202.000 245.431 C 202.000 261.283,202.155 260.529,198.931 260.323 L 197.000 260.200 193.400 253.200 L 189.800 246.200 189.690 252.771 C 189.560 260.477,188.568 261.821,184.233 260.157 C 183.405 259.840,183.258 231.702,184.080 230.880 C 184.604 230.356,187.527 230.234,188.251 230.706 M247.571 230.965 C 247.853 231.305,247.992 232.541,247.920 234.065 L 247.800 236.600 242.500 236.712 L 237.200 236.823 237.200 239.612 L 237.200 242.400 240.920 242.400 C 245.332 242.400,245.600 242.583,245.600 245.600 C 245.600 248.617,245.332 248.800,240.920 248.800 L 237.200 248.800 237.200 251.400 L 237.200 254.000 241.700 254.005 C 248.160 254.013,248.000 253.932,248.000 257.204 C 248.000 260.587,248.504 260.400,239.400 260.400 C 235.366 260.400,231.781 260.291,231.433 260.157 C 230.605 259.840,230.458 231.702,231.280 230.880 C 232.029 230.131,246.943 230.209,247.571 230.965 M259.520 230.880 C 259.871 231.231,260.000 234.409,260.000 242.680 L 260.000 254.000 263.626 254.000 C 268.511 254.000,268.800 254.189,268.800 257.371 C 268.800 260.537,269.145 260.400,261.200 260.400 C 257.716 260.400,254.581 260.291,254.233 260.157 C 253.405 259.840,253.258 231.702,254.080 230.880 C 254.344 230.616,255.568 230.400,256.800 230.400 C 258.032 230.400,259.256 230.616,259.520 230.880 M279.920 230.880 C 280.271 231.231,280.400 234.409,280.400 242.680 L 280.400 254.000 284.371 254.000 C 289.117 254.000,289.600 254.296,289.600 257.200 C 289.600 260.325,289.413 260.400,281.651 260.400 C 276.980 260.400,274.815 260.255,274.480 259.920 C 273.852 259.292,273.790 232.339,274.414 231.174 C 274.900 230.266,279.083 230.043,279.920 230.880 M107.369 233.335 C 107.256 233.630,107.217 235.293,107.282 237.031 C 107.413 240.534,107.583 240.717,110.240 240.219 L 111.600 239.964 111.600 236.382 L 111.600 232.800 109.587 232.800 C 108.276 232.800,107.503 232.986,107.369 233.335 M129.772 237.330 C 129.660 237.622,129.620 239.557,129.684 241.630 L 129.800 245.400 131.651 245.520 C 134.376 245.696,134.800 245.095,134.800 241.051 C 134.800 239.025,134.616 237.576,134.320 237.280 C 133.653 236.613,130.031 236.653,129.772 237.330 M155.601 242.460 C 155.352 243.417,154.981 244.830,154.777 245.600 C 154.026 248.423,154.194 248.800,156.200 248.800 C 158.316 248.800,158.295 248.888,157.218 244.377 C 156.264 240.382,156.169 240.270,155.601 242.460 M107.467 246.667 C 107.320 246.813,107.200 248.523,107.200 250.467 L 107.200 254.000 109.400 254.000 L 111.600 254.000 111.600 250.443 C 111.600 247.568,111.479 246.839,110.967 246.643 C 110.120 246.318,107.800 246.333,107.467 246.667 " stroke="none" fill="#04141c" fill-rule="evenodd"></path><path id="path2" d="M144.000 152.976 C 144.000 153.733,144.138 154.438,144.307 154.543 C 144.476 154.647,144.548 154.028,144.465 153.166 C 144.281 151.232,144.000 151.118,144.000 152.976 M248.493 158.800 C 248.493 159.570,248.575 159.885,248.676 159.500 C 248.776 159.115,248.776 158.485,248.676 158.100 C 248.575 157.715,248.493 158.030,248.493 158.800 M148.662 162.331 C 147.930 163.141,147.804 164.674,148.395 165.600 C 148.657 166.011,148.701 165.725,148.535 164.691 C 148.353 163.556,148.470 162.986,149.008 162.391 C 149.402 161.956,149.634 161.600,149.524 161.600 C 149.414 161.600,149.026 161.929,148.662 162.331 M148.181 167.331 C 148.021 167.973,148.341 168.895,149.210 170.293 C 150.524 172.407,150.646 174.163,149.801 178.800 C 149.005 183.165,151.579 184.874,160.000 185.574 C 168.080 186.245,171.450 188.029,175.157 193.600 C 176.723 195.953,177.024 196.527,178.566 200.103 L 179.559 202.407 201.679 202.303 L 223.800 202.200 223.682 194.600 C 223.548 185.961,223.359 186.549,226.800 184.897 C 229.369 183.663,231.200 182.360,231.200 181.766 C 231.200 181.598,230.791 181.845,230.291 182.315 C 229.791 182.784,228.036 183.857,226.391 184.699 L 223.400 186.228 223.170 194.014 C 223.043 198.296,222.908 201.845,222.870 201.900 C 222.451 202.502,179.947 201.910,179.758 201.300 C 179.639 200.915,179.375 200.287,179.171 199.905 C 178.967 199.523,178.800 198.938,178.800 198.605 C 178.800 198.272,178.664 198.000,178.498 198.000 C 178.331 198.000,177.942 197.415,177.632 196.700 C 174.497 189.457,168.689 185.527,160.400 185.041 C 152.216 184.561,149.314 182.758,150.190 178.700 C 151.073 174.608,150.921 172.403,149.610 170.293 C 148.741 168.895,148.421 167.973,148.581 167.331 C 148.710 166.819,148.725 166.400,148.615 166.400 C 148.505 166.400,148.310 166.819,148.181 167.331 M195.051 182.084 C 194.637 200.427,194.311 198.800,198.400 198.800 C 202.484 198.800,202.164 200.324,201.749 182.884 L 201.400 168.200 201.200 183.200 L 201.000 198.200 198.400 198.200 L 195.800 198.200 195.600 182.400 L 195.400 166.600 195.051 182.084 M205.454 183.134 C 205.239 192.410,205.251 198.211,205.484 198.444 C 205.698 198.658,208.777 198.773,212.630 198.710 L 219.400 198.600 219.511 193.140 C 219.640 186.798,219.560 186.624,216.310 186.207 C 211.820 185.631,210.057 184.206,211.551 182.362 C 212.263 181.482,212.273 181.482,215.501 182.132 C 220.925 183.225,225.280 181.916,228.800 178.134 L 230.600 176.200 228.600 178.008 C 224.559 181.662,220.735 182.797,215.898 181.777 C 212.530 181.067,211.541 181.216,210.833 182.539 C 209.799 184.470,211.716 186.011,215.858 186.580 C 218.924 187.002,218.838 186.814,218.712 192.831 L 218.600 198.200 212.400 198.200 L 206.200 198.200 206.000 183.200 L 205.800 168.200 205.454 183.134 M221.000 170.250 C 220.281 170.862,220.134 171.105,220.633 170.857 C 221.366 170.493,222.741 169.176,222.349 169.214 C 222.267 169.222,221.660 169.688,221.000 170.250 M211.246 171.845 C 211.133 173.917,214.810 176.036,218.349 175.937 L 220.600 175.874 218.000 175.610 C 214.156 175.219,212.010 173.964,211.486 171.800 C 211.302 171.037,211.291 171.039,211.246 171.845 M217.100 171.482 C 217.595 171.578,218.405 171.578,218.900 171.482 C 219.395 171.387,218.990 171.309,218.000 171.309 C 217.010 171.309,216.605 171.387,217.100 171.482 M224.426 172.973 C 223.694 173.728,222.573 174.563,221.935 174.827 C 221.296 175.091,220.853 175.387,220.950 175.483 C 221.285 175.818,223.407 174.461,224.778 173.034 C 225.537 172.245,226.067 171.600,225.957 171.600 C 225.847 171.600,225.158 172.218,224.426 172.973 M233.375 179.107 C 231.694 181.155,231.245 182.124,232.776 180.400 C 233.931 179.100,234.978 177.591,234.714 177.607 C 234.651 177.611,234.049 178.286,233.375 179.107 M179.680 207.280 C 179.000 207.960,179.085 209.828,179.829 210.571 C 180.783 211.526,222.417 211.526,223.371 210.571 C 224.115 209.828,224.200 207.960,223.520 207.280 C 222.828 206.588,180.372 206.588,179.680 207.280 M222.800 208.800 L 222.800 210.000 210.800 210.000 C 203.067 210.000,198.800 209.858,198.800 209.600 C 198.800 209.371,197.600 209.200,196.000 209.200 C 194.400 209.200,193.200 209.029,193.200 208.800 C 193.200 208.571,192.000 208.400,190.400 208.400 C 188.800 208.400,187.600 208.229,187.600 208.000 C 187.600 207.739,193.733 207.600,205.200 207.600 L 222.800 207.600 222.800 208.800 M186.400 216.400 L 186.400 218.400 190.606 218.400 L 194.813 218.400 195.505 219.900 C 197.639 224.524,203.015 224.489,204.958 219.839 L 205.559 218.400 211.180 218.400 L 216.800 218.400 216.800 216.400 L 216.800 214.400 201.600 214.400 L 186.400 214.400 186.400 216.400 M101.399 227.259 C 101.284 227.557,101.238 235.001,101.295 243.801 L 101.400 259.800 107.117 259.911 C 116.674 260.097,117.600 259.275,117.600 250.614 C 117.600 245.904,117.516 245.261,116.800 244.492 C 116.360 244.020,116.000 243.474,116.000 243.279 C 116.000 243.084,116.360 242.598,116.800 242.200 C 118.868 240.329,117.747 229.395,115.320 227.767 C 113.849 226.780,101.752 226.338,101.399 227.259 M124.095 245.500 L 124.200 259.800 126.600 259.800 L 129.000 259.800 129.200 255.600 L 129.400 251.400 131.189 251.400 L 132.979 251.400 133.684 254.200 C 134.072 255.740,134.579 257.675,134.811 258.500 L 135.232 260.000 137.616 260.000 C 140.483 260.000,140.524 259.847,139.121 254.278 C 138.348 251.205,138.306 250.645,138.791 249.878 C 140.419 247.308,140.486 246.894,140.341 240.330 L 140.200 233.908 138.633 232.554 L 137.067 231.200 130.528 231.200 L 123.990 231.200 124.095 245.500 M152.598 231.885 C 152.434 232.278,152.134 233.320,151.932 234.200 C 151.540 235.901,150.995 238.108,150.400 240.400 C 150.055 241.728,149.755 242.921,148.838 246.600 C 148.619 247.480,148.258 249.010,148.036 250.000 C 147.814 250.990,147.193 253.510,146.656 255.600 C 145.500 260.095,145.467 260.000,148.175 260.000 C 150.665 260.000,150.884 259.788,151.600 256.687 L 152.134 254.373 156.135 254.487 C 160.618 254.614,160.047 254.181,161.169 258.300 L 161.632 260.000 164.016 260.000 C 167.068 260.000,167.140 261.133,163.052 244.788 L 159.703 231.400 156.300 231.285 C 153.345 231.185,152.858 231.264,152.598 231.885 M172.182 231.702 C 172.076 231.979,172.037 238.414,172.095 246.002 L 172.200 259.800 174.800 259.800 L 177.400 259.800 177.505 245.500 L 177.610 231.200 174.992 231.200 C 173.261 231.200,172.310 231.370,172.182 231.702 M184.095 245.500 L 184.200 259.800 186.449 259.918 C 189.267 260.067,189.187 260.313,189.195 251.476 C 189.198 247.438,189.348 244.845,189.572 244.983 C 189.776 245.109,191.590 248.548,193.602 252.626 L 197.261 260.040 199.330 259.920 L 201.400 259.800 201.505 245.481 L 201.610 231.162 199.105 231.281 L 196.600 231.400 196.491 238.500 C 196.353 247.463,196.312 247.462,191.914 238.390 L 188.428 231.200 186.209 231.200 L 183.990 231.200 184.095 245.500 M111.226 232.414 C 111.902 232.776,112.000 233.278,112.000 236.365 C 112.000 240.528,111.737 240.902,108.931 240.723 L 107.000 240.600 106.885 236.633 C 106.800 233.729,106.907 232.579,107.285 232.339 C 108.011 231.878,110.307 231.922,111.226 232.414 M134.587 236.789 C 135.277 237.362,135.479 244.140,134.837 245.155 C 134.356 245.913,130.581 246.248,129.802 245.602 C 129.015 244.948,128.929 237.239,129.700 236.446 C 130.314 235.814,133.698 236.052,134.587 236.789 M156.800 240.431 C 156.800 240.862,157.169 242.592,157.620 244.275 C 158.824 248.766,158.665 249.370,156.244 249.524 C 153.828 249.678,153.386 249.302,153.911 247.537 C 154.129 246.802,154.528 245.120,154.797 243.800 C 155.621 239.753,156.800 237.770,156.800 240.431 M111.114 246.256 C 111.996 246.492,112.024 246.634,111.914 250.350 L 111.800 254.200 109.300 254.319 L 106.800 254.438 106.800 250.452 C 106.800 247.638,106.947 246.407,107.300 246.265 C 108.019 245.975,110.048 245.970,111.114 246.256 " stroke="none" fill="#3c838b" fill-rule="evenodd"></path><path id="path3" d="M218.000 91.164 C 211.665 92.246,206.008 96.538,203.063 102.498 C 202.225 104.196,201.610 105.903,201.698 106.292 C 201.803 106.758,202.009 106.484,202.299 105.492 C 207.727 86.926,235.985 87.004,241.232 105.600 C 241.896 107.952,242.061 108.140,244.520 109.343 C 248.546 111.313,251.635 115.258,252.856 119.991 C 253.371 121.986,253.538 122.298,253.565 121.319 C 253.673 117.375,248.925 110.795,244.549 108.825 C 242.769 108.024,242.432 107.682,242.003 106.251 C 239.897 99.214,235.530 94.692,227.915 91.663 C 226.476 91.090,220.264 90.778,218.000 91.164 M186.894 93.594 C 185.515 93.751,184.256 94.010,184.096 94.171 C 183.936 94.331,184.974 94.313,186.402 94.131 C 187.831 93.949,190.350 93.800,192.000 93.800 L 195.000 93.800 195.200 130.400 L 195.400 167.000 195.706 130.648 C 195.932 103.693,195.894 94.154,195.557 93.748 C 195.061 93.150,191.374 93.085,186.894 93.594 M179.400 95.246 C 169.502 98.502,161.677 104.777,157.656 112.684 C 156.418 115.119,156.617 115.358,157.918 113.000 C 162.949 103.885,170.633 98.197,182.400 94.877 C 183.536 94.556,183.611 94.479,182.800 94.469 C 182.250 94.463,180.720 94.812,179.400 95.246 M217.709 95.963 C 212.758 97.236,206.340 103.445,206.410 106.896 C 206.416 107.173,206.945 106.320,207.587 105.000 C 214.033 91.734,234.150 93.922,237.011 108.200 C 237.197 109.131,237.400 109.505,237.496 109.095 C 237.968 107.072,235.060 101.713,232.256 99.438 C 228.291 96.222,222.286 94.787,217.709 95.963 M221.300 100.676 C 221.685 100.776,222.315 100.776,222.700 100.676 C 223.085 100.575,222.770 100.493,222.000 100.493 C 221.230 100.493,220.915 100.575,221.300 100.676 M216.750 101.946 C 214.037 103.667,211.979 106.709,212.013 108.949 C 212.020 109.417,212.357 108.841,212.762 107.669 C 213.691 104.980,215.951 102.631,218.585 101.617 C 220.119 101.027,220.356 100.837,219.578 100.821 C 219.016 100.809,217.744 101.316,216.750 101.946 M225.415 101.617 C 228.049 102.631,230.309 104.980,231.238 107.669 C 231.643 108.841,231.980 109.417,231.987 108.949 C 232.035 105.793,227.352 100.761,224.422 100.821 C 223.644 100.837,223.881 101.027,225.415 101.617 M221.600 105.469 C 223.705 105.807,225.495 106.891,226.332 108.334 C 226.799 109.140,227.186 109.509,227.191 109.154 C 227.216 107.397,224.046 105.140,221.713 105.254 C 220.646 105.307,220.642 105.316,221.600 105.469 M218.438 106.629 C 217.318 107.572,216.829 108.684,216.212 111.694 C 215.746 113.968,213.011 113.615,212.087 111.162 L 211.574 109.800 211.789 111.162 C 212.331 114.589,216.800 114.492,216.800 111.053 C 216.800 109.895,218.206 106.800,218.732 106.800 C 219.254 106.800,220.637 105.626,220.131 105.613 C 219.873 105.606,219.111 106.063,218.438 106.629 M201.081 108.900 C 200.966 109.835,201.002 123.650,201.163 139.600 L 201.455 168.600 201.527 137.900 C 201.567 121.015,201.530 107.200,201.445 107.200 C 201.360 107.200,201.196 107.965,201.081 108.900 M205.876 109.600 C 205.155 114.504,205.677 120.991,206.800 121.074 C 207.358 121.115,207.495 121.059,207.110 120.946 C 206.497 120.768,206.407 119.991,206.310 114.073 C 206.223 108.811,206.132 107.865,205.876 109.600 M227.337 110.987 C 227.470 113.489,231.576 113.849,231.897 111.386 C 231.984 110.720,231.941 110.735,231.617 111.488 C 230.780 113.432,227.936 112.864,227.459 110.658 C 227.346 110.136,227.298 110.265,227.337 110.987 M237.709 111.600 C 237.709 112.590,237.787 112.995,237.882 112.500 C 237.978 112.005,237.978 111.195,237.882 110.700 C 237.787 110.205,237.709 110.610,237.709 111.600 M242.021 114.700 C 241.466 116.700,241.456 117.641,242.000 116.800 C 242.213 116.470,242.391 115.716,242.394 115.124 C 242.406 112.935,245.537 114.774,246.982 117.819 C 247.360 118.614,247.756 119.177,247.864 119.070 C 248.480 118.453,243.973 113.200,242.828 113.200 C 242.613 113.200,242.250 113.875,242.021 114.700 M237.045 115.139 C 236.864 116.095,236.190 117.879,235.546 119.102 C 234.902 120.326,234.433 121.499,234.503 121.710 C 234.771 122.513,237.656 115.629,237.515 114.521 C 237.393 113.555,237.328 113.640,237.045 115.139 M155.473 117.753 C 155.323 118.145,155.211 118.766,155.225 119.133 C 155.242 119.575,155.381 119.474,155.637 118.834 C 155.849 118.303,155.961 117.682,155.885 117.454 C 155.809 117.227,155.624 117.361,155.473 117.753 M218.223 118.489 C 217.135 120.042,218.170 122.425,219.916 122.384 C 220.402 122.373,220.296 122.203,219.550 121.798 C 218.145 121.034,217.891 119.846,218.868 118.605 C 219.302 118.052,219.475 117.600,219.252 117.600 C 219.028 117.600,218.565 118.000,218.223 118.489 M222.800 118.000 C 224.236 118.460,224.884 118.460,224.600 118.000 C 224.464 117.780,223.778 117.618,223.076 117.640 C 221.857 117.678,221.845 117.694,222.800 118.000 M240.232 120.270 C 238.514 124.063,236.799 125.199,235.200 123.600 C 234.760 123.160,234.400 122.952,234.400 123.138 C 234.400 124.753,237.223 125.213,238.612 123.825 C 239.678 122.759,241.762 118.657,241.539 118.063 C 241.463 117.859,240.875 118.852,240.232 120.270 M225.400 118.800 C 225.536 119.020,225.884 119.200,226.173 119.200 C 228.265 119.200,231.326 124.713,231.349 128.524 C 231.360 130.534,231.457 131.006,231.716 130.324 C 232.766 127.559,230.636 121.984,227.665 119.717 C 225.980 118.433,224.903 117.996,225.400 118.800 M248.238 121.000 C 248.570 122.984,248.802 123.304,248.794 121.767 C 248.791 121.125,248.604 120.330,248.379 120.000 C 248.086 119.570,248.046 119.854,248.238 121.000 M154.689 120.800 C 154.536 121.350,154.425 122.250,154.442 122.800 C 154.468 123.661,154.526 123.614,154.858 122.460 C 155.070 121.724,155.181 120.824,155.106 120.460 C 155.008 119.994,154.886 120.093,154.689 120.800 M211.145 121.348 C 213.272 122.117,215.464 124.202,216.133 126.093 C 216.465 127.032,216.751 127.456,216.768 127.035 C 216.859 124.834,212.769 120.743,210.565 120.830 C 210.087 120.849,210.304 121.043,211.145 121.348 M223.400 123.052 C 224.060 123.393,225.004 124.151,225.498 124.736 C 225.992 125.321,226.397 125.588,226.398 125.329 C 226.401 124.693,223.571 122.396,222.809 122.416 C 222.474 122.425,222.740 122.711,223.400 123.052 M245.944 125.209 C 248.209 126.237,248.811 126.213,248.754 125.100 C 248.719 124.423,248.662 124.373,248.524 124.900 C 248.301 125.754,248.016 125.769,246.546 125.002 C 245.916 124.674,245.130 124.408,244.800 124.411 C 244.470 124.415,244.985 124.774,245.944 125.209 M252.843 127.044 C 252.315 129.775,252.327 129.934,253.154 131.052 C 253.627 131.692,254.457 133.293,254.998 134.608 C 255.539 135.924,255.985 136.680,255.991 136.289 C 256.002 135.456,253.663 130.662,253.150 130.467 C 252.672 130.285,252.710 128.777,253.231 127.283 C 253.468 126.603,253.601 125.632,253.527 125.124 C 253.453 124.613,253.147 125.471,252.843 127.044 M242.880 125.280 C 241.538 126.622,242.293 128.320,244.990 130.023 C 247.716 131.745,249.522 133.697,250.529 136.009 C 250.862 136.774,251.149 137.120,251.167 136.778 C 251.253 135.151,248.244 131.618,244.926 129.451 C 242.790 128.055,242.309 126.806,243.430 125.567 C 244.176 124.742,243.678 124.482,242.880 125.280 M154.128 128.000 C 154.128 129.430,154.201 130.015,154.289 129.300 C 154.378 128.585,154.378 127.415,154.289 126.700 C 154.201 125.985,154.128 126.570,154.128 128.000 M206.470 126.526 C 205.605 127.446,205.601 127.541,205.691 142.426 L 205.781 157.400 205.991 142.277 L 206.200 127.154 207.200 126.386 C 207.750 125.963,208.006 125.614,207.770 125.609 C 207.533 125.604,206.948 126.017,206.470 126.526 M209.633 125.700 C 209.725 125.755,210.305 126.246,210.922 126.791 C 211.762 127.532,211.977 127.605,211.775 127.079 C 211.521 126.418,210.407 125.600,209.760 125.600 C 209.599 125.600,209.542 125.645,209.633 125.700 M226.570 127.203 C 226.974 129.668,225.026 133.600,223.401 133.600 C 222.566 133.600,221.200 135.224,221.200 136.216 C 221.200 137.461,222.524 138.811,223.700 138.764 C 224.396 138.736,224.306 138.643,223.305 138.354 C 220.872 137.651,221.011 135.321,223.563 134.019 C 226.289 132.628,228.107 128.301,226.764 126.400 C 226.446 125.949,226.397 126.149,226.570 127.203 M212.012 129.630 C 211.997 130.401,213.633 132.000,214.437 132.000 C 215.171 132.000,216.800 130.882,216.800 130.377 C 216.800 130.170,216.440 130.360,216.000 130.800 C 214.761 132.039,213.490 131.679,212.462 129.800 C 212.132 129.196,212.021 129.155,212.012 129.630 M241.726 132.807 C 243.534 133.349,245.427 135.025,246.326 136.879 C 246.785 137.826,247.169 138.363,247.180 138.074 C 247.255 136.088,243.357 132.337,241.320 132.434 C 240.890 132.455,241.054 132.605,241.726 132.807 M229.237 134.836 C 228.738 135.510,227.501 136.588,226.487 137.231 C 224.560 138.453,224.461 138.809,226.320 137.833 C 227.576 137.173,230.643 134.110,230.346 133.812 C 230.234 133.701,229.735 134.162,229.237 134.836 M239.200 135.962 C 239.200 136.129,239.920 136.845,240.800 137.552 C 241.680 138.259,242.400 138.769,242.400 138.684 C 242.400 138.600,241.680 137.885,240.800 137.095 C 239.920 136.305,239.200 135.795,239.200 135.962 M214.528 136.720 C 214.886 137.116,215.346 138.151,215.549 139.020 C 215.863 140.359,215.926 140.430,215.960 139.480 C 216.007 138.178,214.985 136.000,214.328 136.000 C 214.066 136.000,214.150 136.303,214.528 136.720 M210.901 139.000 C 210.905 139.880,210.987 140.193,211.083 139.695 C 211.179 139.198,211.175 138.478,211.075 138.095 C 210.975 137.713,210.896 138.120,210.901 139.000 M251.351 140.840 C 251.354 142.832,251.470 143.793,251.638 143.200 C 252.013 141.871,252.017 139.187,251.646 138.240 C 251.478 137.814,251.349 138.956,251.351 140.840 M256.134 140.800 C 256.134 142.450,256.205 143.125,256.291 142.300 C 256.378 141.475,256.378 140.125,256.291 139.300 C 256.205 138.475,256.134 139.150,256.134 140.800 M152.694 139.703 L 151.988 141.000 152.794 140.056 C 153.480 139.252,153.846 138.394,153.500 138.403 C 153.445 138.404,153.082 138.989,152.694 139.703 M230.117 141.466 C 228.772 143.232,227.621 144.420,226.576 145.121 C 226.149 145.408,226.430 145.308,227.200 144.899 C 227.969 144.490,229.099 143.411,229.710 142.501 C 231.037 140.527,232.079 140.098,233.420 140.976 C 234.536 141.707,234.765 141.365,233.700 140.557 C 232.461 139.616,231.303 139.910,230.117 141.466 M241.759 142.293 C 241.532 142.652,240.729 143.170,239.973 143.443 C 238.926 143.821,238.809 143.946,239.478 143.970 C 240.369 144.000,242.778 142.247,242.386 141.853 C 242.268 141.735,241.986 141.933,241.759 142.293 M246.658 142.913 C 246.505 143.522,245.716 144.781,244.904 145.710 C 243.485 147.335,243.480 147.354,244.750 146.200 C 246.216 144.868,247.333 142.998,247.092 142.276 C 247.006 142.018,246.810 142.304,246.658 142.913 M233.567 144.500 C 233.314 144.995,232.363 146.210,231.453 147.200 L 229.800 148.999 231.533 147.400 C 233.066 145.984,234.755 143.600,234.224 143.600 C 234.116 143.600,233.821 144.005,233.567 144.500 M236.789 144.821 C 236.547 145.272,236.430 145.947,236.528 146.321 C 236.678 146.889,236.715 146.874,236.754 146.231 C 236.779 145.809,237.098 145.134,237.462 144.731 C 237.835 144.319,237.929 144.000,237.676 144.000 C 237.430 144.000,237.030 144.369,236.789 144.821 M255.646 144.867 C 255.621 145.234,255.496 145.864,255.370 146.267 C 255.152 146.962,255.163 146.963,255.597 146.287 C 255.848 145.896,255.973 145.266,255.873 144.887 C 255.711 144.268,255.688 144.266,255.646 144.867 M214.383 146.900 C 215.364 147.945,216.219 148.800,216.283 148.800 C 216.584 148.800,216.266 148.441,214.500 146.783 L 212.600 145.000 214.383 146.900 M221.711 146.104 C 222.382 146.327,223.413 146.331,224.311 146.113 C 225.679 145.781,225.589 145.750,223.200 145.742 C 221.079 145.735,220.805 145.802,221.711 146.104 M249.055 147.988 C 248.471 148.871,247.275 150.069,246.397 150.650 C 244.489 151.912,244.241 152.427,246.100 151.267 C 247.534 150.371,250.653 146.920,250.325 146.591 C 250.210 146.477,249.639 147.106,249.055 147.988 M236.800 147.527 C 236.800 148.496,240.092 149.134,241.200 148.379 C 241.633 148.084,241.382 148.043,240.298 148.230 C 239.230 148.415,238.509 148.301,237.798 147.836 C 237.249 147.476,236.800 147.337,236.800 147.527 M253.908 149.132 C 253.308 150.159,252.340 151.630,251.757 152.400 L 250.697 153.800 251.959 152.400 C 253.327 150.882,255.390 147.656,255.147 147.414 C 255.065 147.332,254.507 148.105,253.908 149.132 M221.900 150.689 C 222.615 150.778,223.785 150.778,224.500 150.689 C 225.215 150.601,224.630 150.528,223.200 150.528 C 221.770 150.528,221.185 150.601,221.900 150.689 M217.284 152.603 C 217.440 152.845,217.744 153.483,217.959 154.022 C 218.206 154.640,218.359 154.759,218.375 154.344 C 218.389 153.984,218.085 153.345,217.700 152.925 C 217.315 152.506,217.128 152.360,217.284 152.603 M239.382 153.782 C 238.340 154.824,238.096 156.165,238.862 156.638 C 239.156 156.820,239.215 156.747,239.024 156.439 C 238.446 155.504,239.200 153.962,240.514 153.390 C 241.299 153.049,241.520 152.825,241.082 152.816 C 240.687 152.807,239.922 153.242,239.382 153.782 M228.744 155.224 L 227.800 156.047 228.901 155.377 C 229.506 155.009,230.361 154.801,230.801 154.916 C 231.241 155.031,231.500 154.962,231.377 154.763 C 230.993 154.142,229.731 154.363,228.744 155.224 M248.446 160.467 C 248.421 160.834,248.296 161.464,248.170 161.867 C 247.952 162.562,247.963 162.563,248.397 161.887 C 248.648 161.496,248.773 160.866,248.673 160.487 C 248.511 159.868,248.488 159.866,248.446 160.467 M223.062 161.100 C 222.960 161.265,223.382 161.400,224.000 161.400 C 224.618 161.400,225.040 161.265,224.938 161.100 C 224.836 160.935,224.414 160.800,224.000 160.800 C 223.586 160.800,223.164 160.935,223.062 161.100 M205.762 164.554 C 205.645 164.859,205.610 165.894,205.683 166.854 C 205.813 168.544,205.823 168.526,206.009 166.299 C 206.203 163.965,206.145 163.556,205.762 164.554 M208.700 164.282 C 209.195 164.378,210.005 164.378,210.500 164.282 C 210.995 164.187,210.590 164.109,209.600 164.109 C 208.610 164.109,208.205 164.187,208.700 164.282 M212.800 226.658 C 208.023 228.564,208.000 228.643,208.000 243.400 C 208.000 259.720,208.146 260.000,216.652 260.000 C 223.403 260.000,224.539 259.144,225.048 253.672 C 225.478 249.044,225.291 248.741,222.088 248.882 L 219.400 249.000 219.276 251.188 C 219.115 254.028,218.717 254.468,216.435 254.319 L 214.600 254.200 214.493 243.628 C 214.377 232.157,214.328 232.418,216.624 232.406 C 218.552 232.396,219.153 233.118,219.284 235.600 L 219.400 237.800 222.088 237.918 C 225.302 238.059,225.468 237.782,225.060 232.957 C 224.633 227.903,223.138 226.677,217.208 226.520 C 215.114 226.464,213.130 226.526,212.800 226.658 M222.013 227.807 C 223.811 228.736,224.519 230.513,224.562 234.200 L 224.600 237.400 222.404 237.400 L 220.208 237.400 219.862 235.200 C 219.410 232.322,219.091 232.000,216.695 232.000 C 213.592 232.000,213.627 231.868,213.613 243.369 C 213.598 254.734,213.615 254.800,216.586 254.800 C 218.981 254.800,219.598 254.180,219.875 251.491 L 220.112 249.200 222.248 249.200 C 224.782 249.200,225.068 249.727,224.658 253.648 C 224.150 258.507,222.670 259.600,216.600 259.600 C 208.752 259.600,208.800 259.700,208.800 243.400 C 208.800 229.602,208.885 229.031,211.105 227.826 C 212.657 226.984,220.395 226.970,222.013 227.807 M231.043 231.433 C 230.676 232.388,230.763 258.923,231.135 259.509 C 231.383 259.899,233.359 259.992,239.629 259.909 L 247.800 259.800 247.800 257.200 L 247.800 254.600 242.400 254.400 L 237.000 254.200 237.000 251.600 L 237.000 249.000 240.587 248.883 C 244.963 248.741,245.600 248.323,245.600 245.600 C 245.600 242.877,244.963 242.459,240.587 242.317 L 237.000 242.200 237.000 239.600 L 237.000 237.000 241.975 236.887 C 244.804 236.823,247.176 236.586,247.475 236.338 C 248.270 235.678,248.182 231.356,247.367 231.043 C 245.787 230.436,231.292 230.783,231.043 231.433 M253.782 231.302 C 253.676 231.579,253.637 238.104,253.695 245.802 L 253.800 259.800 261.200 259.800 L 268.600 259.800 268.726 258.032 C 268.984 254.426,268.951 254.400,264.192 254.400 L 260.000 254.400 260.000 243.080 C 260.000 234.809,259.871 231.631,259.520 231.280 C 258.862 230.622,254.036 230.640,253.782 231.302 M274.667 231.067 C 274.520 231.213,274.400 237.787,274.400 245.676 L 274.400 260.018 281.700 259.909 L 289.000 259.800 289.000 257.200 L 289.000 254.600 284.800 254.400 L 280.600 254.200 280.385 242.600 C 280.266 236.220,280.131 230.955,280.085 230.900 C 279.890 230.669,274.911 230.823,274.667 231.067 M247.120 233.700 L 247.240 236.000 242.063 236.000 C 236.136 236.000,236.396 235.828,236.406 239.733 C 236.415 243.131,236.437 243.150,240.814 243.284 L 244.600 243.400 244.600 245.600 L 244.600 247.800 240.704 247.914 C 236.214 248.046,236.261 247.999,236.478 252.217 L 236.600 254.600 241.900 254.712 L 247.200 254.823 247.200 257.212 L 247.200 259.600 239.443 259.600 C 232.738 259.600,231.653 259.514,231.443 258.967 C 231.105 258.088,231.136 231.797,231.475 231.458 C 231.626 231.307,235.181 231.232,239.375 231.292 L 247.000 231.400 247.120 233.700 M259.200 243.000 L 259.400 254.600 263.600 254.800 L 267.800 255.000 267.920 257.300 L 268.040 259.600 261.220 259.600 L 254.400 259.600 254.400 245.667 C 254.400 230.168,254.229 231.121,256.985 231.282 L 259.000 231.400 259.200 243.000 M280.000 243.000 L 280.200 254.600 284.400 254.800 L 288.600 255.000 288.720 257.300 L 288.840 259.600 281.820 259.600 L 274.800 259.600 274.800 245.667 C 274.800 230.069,274.596 231.124,277.584 231.283 L 279.800 231.400 280.000 243.000 " stroke="none" fill="#446637" fill-rule="evenodd"></path><path id="path4" d="M192.900 93.076 C 193.285 93.176,193.915 93.176,194.300 93.076 C 194.685 92.975,194.370 92.893,193.600 92.893 C 192.830 92.893,192.515 92.975,192.900 93.076 M187.300 93.476 C 187.685 93.576,188.315 93.576,188.700 93.476 C 189.085 93.375,188.770 93.293,188.000 93.293 C 187.230 93.293,186.915 93.375,187.300 93.476 M162.975 104.900 L 161.800 106.200 163.100 105.025 C 164.312 103.930,164.584 103.600,164.275 103.600 C 164.206 103.600,163.621 104.185,162.975 104.900 M221.105 105.883 C 221.602 105.979,222.322 105.975,222.705 105.875 C 223.087 105.775,222.680 105.696,221.800 105.701 C 220.920 105.705,220.607 105.787,221.105 105.883 M232.109 110.000 C 232.109 110.990,232.187 111.395,232.282 110.900 C 232.378 110.405,232.378 109.595,232.282 109.100 C 232.187 108.605,232.109 109.010,232.109 110.000 M237.320 111.600 C 237.320 112.810,237.395 113.305,237.487 112.700 C 237.578 112.095,237.578 111.105,237.487 110.500 C 237.395 109.895,237.320 110.390,237.320 111.600 M248.800 111.800 C 249.546 112.570,250.247 113.200,250.357 113.200 C 250.467 113.200,249.946 112.570,249.200 111.800 C 248.454 111.030,247.753 110.400,247.643 110.400 C 247.533 110.400,248.054 111.030,248.800 111.800 M244.000 114.525 C 244.000 114.594,244.585 115.179,245.300 115.825 L 246.600 117.000 245.425 115.700 C 244.330 114.488,244.000 114.216,244.000 114.525 M195.796 158.800 L 195.800 198.200 198.400 198.200 L 201.000 198.200 201.004 159.200 L 201.008 120.200 200.804 159.000 L 200.600 197.800 198.400 197.800 L 196.200 197.800 195.996 158.600 L 195.792 119.400 195.796 158.800 M208.105 120.687 C 208.714 120.779,209.614 120.777,210.105 120.682 C 210.597 120.587,210.100 120.511,209.000 120.514 C 207.900 120.517,207.497 120.595,208.105 120.687 M253.720 123.200 C 253.720 124.410,253.795 124.905,253.887 124.300 C 253.978 123.695,253.978 122.705,253.887 122.100 C 253.795 121.495,253.720 121.990,253.720 123.200 M154.109 124.000 C 154.109 124.990,154.187 125.395,154.282 124.900 C 154.378 124.405,154.378 123.595,154.282 123.100 C 154.187 122.605,154.109 123.010,154.109 124.000 M220.305 122.683 C 220.802 122.779,221.522 122.775,221.905 122.675 C 222.287 122.575,221.880 122.496,221.000 122.501 C 220.120 122.505,219.807 122.587,220.305 122.683 M210.668 126.800 C 211.145 127.350,211.613 128.340,211.708 129.000 L 211.880 130.200 211.940 128.970 C 211.983 128.082,211.693 127.469,210.900 126.770 L 209.800 125.800 210.668 126.800 M206.095 142.484 C 205.993 158.611,206.065 159.200,208.129 159.200 C 208.338 159.200,208.036 158.829,207.459 158.375 L 206.410 157.549 206.300 142.475 L 206.190 127.400 206.095 142.484 M231.429 131.029 C 231.281 131.615,231.238 132.172,231.332 132.266 C 231.427 132.360,231.624 131.958,231.771 131.371 C 231.919 130.785,231.962 130.228,231.868 130.134 C 231.773 130.040,231.576 130.442,231.429 131.029 M154.079 133.067 C 154.036 134.644,153.896 136.264,153.770 136.667 C 153.556 137.348,153.571 137.351,153.987 136.704 C 154.250 136.296,154.378 134.808,154.297 133.104 L 154.159 130.200 154.079 133.067 M224.494 132.412 C 223.775 133.065,223.337 133.600,223.519 133.600 C 223.701 133.600,224.368 133.060,225.000 132.400 C 226.470 130.865,226.186 130.872,224.494 132.412 M244.000 133.325 C 244.000 133.394,244.585 133.979,245.300 134.625 L 246.600 135.800 245.425 134.500 C 244.330 133.288,244.000 133.016,244.000 133.325 M220.927 135.447 C 220.202 137.335,222.685 139.763,224.459 138.902 C 225.336 138.476,225.314 138.460,224.142 138.664 C 222.448 138.959,221.046 137.630,221.291 135.960 C 221.479 134.681,221.311 134.445,220.927 135.447 M228.378 136.300 L 227.000 137.800 228.500 136.422 C 229.896 135.138,230.184 134.800,229.878 134.800 C 229.812 134.800,229.137 135.475,228.378 136.300 M238.846 135.666 C 238.821 136.033,239.520 136.903,240.400 137.600 C 242.272 139.082,242.592 141.008,241.200 142.400 C 240.760 142.840,240.570 143.200,240.777 143.200 C 242.827 143.200,242.856 139.204,240.819 137.568 C 239.950 136.869,239.161 136.005,239.066 135.649 C 238.910 135.066,238.888 135.068,238.846 135.666 M211.229 136.654 C 210.773 137.234,210.418 138.179,210.441 138.754 C 210.478 139.702,210.511 139.679,210.790 138.502 C 211.213 136.719,211.840 136.074,213.330 135.887 L 214.600 135.728 213.329 135.664 C 212.386 135.617,211.844 135.872,211.229 136.654 M256.528 140.800 C 256.528 142.230,256.601 142.815,256.689 142.100 C 256.778 141.385,256.778 140.215,256.689 139.500 C 256.601 138.785,256.528 139.370,256.528 140.800 M150.937 141.700 C 150.070 142.855,148.140 145.375,146.650 147.300 C 145.160 149.225,144.031 150.800,144.140 150.800 C 144.347 150.800,150.314 143.211,151.914 140.913 C 153.363 138.834,152.675 139.387,150.937 141.700 M251.293 140.800 C 251.293 141.570,251.375 141.885,251.476 141.500 C 251.576 141.115,251.576 140.485,251.476 140.100 C 251.375 139.715,251.293 140.030,251.293 140.800 M216.812 142.259 C 216.800 142.733,219.408 145.203,219.914 145.196 C 220.071 145.193,219.618 144.732,218.906 144.172 C 218.195 143.611,217.436 142.848,217.219 142.476 C 217.002 142.104,216.819 142.006,216.812 142.259 M228.000 143.463 C 227.098 144.400,226.900 144.760,227.443 144.475 C 228.126 144.117,229.905 141.989,229.509 142.004 C 229.449 142.007,228.770 142.663,228.000 143.463 M234.100 144.100 C 233.670 145.275,233.680 145.326,234.212 144.624 C 234.721 143.952,235.021 142.800,234.688 142.800 C 234.626 142.800,234.361 143.385,234.100 144.100 M250.846 143.267 C 250.821 143.634,250.696 144.264,250.570 144.667 C 250.352 145.362,250.363 145.363,250.797 144.687 C 251.048 144.296,251.173 143.666,251.073 143.287 C 250.911 142.668,250.888 142.666,250.846 143.267 M238.200 143.600 C 237.696 143.817,237.622 143.944,238.000 143.944 C 238.330 143.944,238.960 143.789,239.400 143.600 C 239.904 143.383,239.978 143.256,239.600 143.256 C 239.270 143.256,238.640 143.411,238.200 143.600 M212.627 145.551 C 213.378 146.865,216.688 149.633,218.100 150.129 C 219.314 150.555,218.859 150.066,217.397 149.372 C 216.626 149.006,215.063 147.692,213.924 146.453 C 212.314 144.701,212.025 144.500,212.627 145.551 M236.136 145.422 C 236.005 145.764,236.071 146.432,236.282 146.907 C 236.611 147.644,236.662 147.554,236.634 146.286 C 236.597 144.658,236.496 144.483,236.136 145.422 M244.993 146.007 C 244.357 146.671,243.157 147.514,242.326 147.881 C 241.494 148.248,240.890 148.623,240.981 148.715 C 241.353 149.087,244.925 146.947,245.663 145.911 C 246.694 144.463,246.437 144.500,244.993 146.007 M231.272 147.615 C 228.934 149.796,228.776 150.093,230.716 148.662 C 231.800 147.862,233.917 145.569,233.529 145.615 C 233.458 145.624,232.442 146.524,231.272 147.615 M247.400 149.318 C 245.927 150.840,245.738 151.145,246.684 150.476 C 247.723 149.742,250.008 147.129,249.527 147.226 C 249.457 147.240,248.500 148.181,247.400 149.318 M253.501 150.500 C 253.176 150.995,252.363 151.985,251.695 152.700 C 251.026 153.415,250.620 154.000,250.791 154.000 C 251.086 154.000,253.511 151.186,254.152 150.100 C 254.670 149.223,254.116 149.564,253.501 150.500 M220.076 150.860 C 220.584 151.003,221.990 151.120,223.200 151.120 C 224.410 151.120,225.816 151.003,226.324 150.860 C 226.832 150.717,225.426 150.600,223.200 150.600 C 220.974 150.600,219.568 150.717,220.076 150.860 M143.709 152.800 C 143.709 153.790,143.787 154.195,143.882 153.700 C 143.978 153.205,143.978 152.395,143.882 151.900 C 143.787 151.405,143.709 151.810,143.709 152.800 M213.829 152.229 C 213.468 152.589,213.200 153.535,213.200 154.448 C 213.200 156.384,212.266 158.308,211.079 158.820 C 210.324 159.146,210.311 159.185,210.986 159.097 C 212.202 158.938,213.600 156.544,213.600 154.621 C 213.600 151.955,216.330 150.823,217.777 152.889 C 218.120 153.378,218.400 153.586,218.400 153.351 C 218.400 151.844,215.039 151.018,213.829 152.229 M241.800 152.400 C 240.693 152.682,240.677 152.709,241.600 152.747 C 242.150 152.769,242.870 152.613,243.200 152.400 C 243.881 151.960,243.529 151.960,241.800 152.400 M238.998 153.602 C 237.975 154.732,238.410 154.837,239.486 153.720 C 239.973 153.214,240.226 152.800,240.048 152.800 C 239.870 152.800,239.397 153.161,238.998 153.602 M218.509 155.600 C 218.509 156.590,218.587 156.995,218.682 156.500 C 218.778 156.005,218.778 155.195,218.682 154.700 C 218.587 154.205,218.509 154.610,218.509 155.600 M232.713 156.167 C 233.651 157.249,234.964 159.229,235.630 160.567 C 236.296 161.905,236.721 162.550,236.575 162.000 C 235.959 159.679,233.676 156.244,231.790 154.800 C 231.359 154.470,231.775 155.085,232.713 156.167 M144.738 155.720 C 145.254 156.277,146.154 156.850,146.738 156.993 C 149.661 157.711,150.280 159.213,148.645 161.619 C 147.661 163.067,147.231 168.925,148.071 169.444 C 149.636 170.411,150.351 174.254,149.554 177.416 C 148.130 183.073,150.766 185.184,160.510 186.184 C 169.866 187.145,175.682 191.819,178.201 200.400 C 178.948 202.946,177.527 202.800,201.613 202.800 C 227.494 202.800,224.605 203.681,224.295 195.886 C 223.938 186.936,223.958 186.862,227.144 185.290 C 231.585 183.099,235.502 178.739,236.570 174.800 C 236.719 174.250,236.294 174.898,235.626 176.241 C 233.860 179.790,230.329 183.303,226.956 184.868 C 223.338 186.545,223.548 185.923,223.682 194.600 L 223.800 202.200 201.679 202.303 L 179.559 202.407 178.566 200.103 C 173.978 189.461,170.081 186.411,160.000 185.574 C 151.578 184.874,149.002 183.163,149.803 178.800 C 150.612 174.389,150.497 172.253,149.359 170.598 C 147.757 168.267,147.584 163.769,149.016 161.663 C 150.545 159.412,149.775 156.800,147.580 156.800 C 147.213 156.800,146.212 156.329,145.356 155.754 L 143.800 154.708 144.738 155.720 M248.914 159.000 C 248.917 160.100,248.995 160.503,249.087 159.895 C 249.179 159.286,249.177 158.386,249.082 157.895 C 248.987 157.403,248.911 157.900,248.914 159.000 M217.460 159.173 C 215.952 162.590,212.407 164.576,208.264 164.325 L 206.200 164.200 206.200 181.200 L 206.200 198.200 212.400 198.200 L 218.600 198.200 218.712 192.831 C 218.838 186.814,218.924 187.002,215.858 186.580 C 211.716 186.011,209.799 184.470,210.833 182.539 C 211.529 181.237,212.494 181.085,215.878 181.741 C 223.101 183.141,232.245 177.436,231.966 171.704 C 231.943 171.244,231.826 171.346,231.626 172.000 C 229.331 179.519,224.664 181.832,213.248 181.111 C 211.747 181.016,211.381 181.154,210.689 182.075 C 208.970 184.363,211.207 186.410,216.211 187.125 L 218.200 187.410 218.200 192.605 L 218.200 197.800 212.400 197.800 L 206.600 197.800 206.496 181.118 L 206.391 164.437 208.296 164.661 C 212.111 165.112,216.023 163.057,217.616 159.766 C 218.098 158.772,218.414 157.881,218.320 157.786 C 218.225 157.692,217.838 158.316,217.460 159.173 M240.087 158.073 C 240.369 158.257,241.294 158.298,242.142 158.162 L 243.685 157.915 243.457 159.658 C 243.241 161.315,243.251 161.337,243.666 160.122 C 244.352 158.117,243.946 157.637,241.608 157.691 C 240.357 157.719,239.772 157.866,240.087 158.073 M228.740 159.516 C 229.233 160.209,229.844 160.904,230.097 161.060 C 230.350 161.217,230.154 160.777,229.660 160.084 C 229.167 159.391,228.556 158.696,228.303 158.540 C 228.050 158.383,228.246 158.823,228.740 159.516 M221.960 161.640 C 221.308 162.292,221.180 162.761,221.386 163.740 C 222.657 169.773,220.253 172.374,215.600 170.000 C 212.980 168.663,210.476 169.764,210.913 172.061 C 211.084 172.962,211.093 172.958,211.146 171.962 C 211.261 169.754,213.270 169.036,215.510 170.401 C 220.015 173.148,223.297 169.738,221.788 163.880 C 221.563 163.007,221.702 162.543,222.419 161.780 C 223.540 160.586,223.137 160.463,221.960 161.640 M225.763 162.029 C 226.333 162.707,226.800 163.458,226.800 163.697 C 226.800 163.937,226.903 164.030,227.029 163.904 C 227.388 163.545,226.105 161.326,225.378 161.047 C 224.946 160.881,225.076 161.212,225.763 162.029 M242.800 161.919 C 242.800 162.622,240.411 165.174,239.136 165.833 C 237.902 166.471,237.826 166.396,237.061 163.800 C 236.931 163.360,236.903 163.705,236.998 164.568 C 237.280 167.113,238.500 167.268,240.898 165.063 C 242.375 163.704,243.409 162.076,243.032 161.699 C 242.905 161.571,242.800 161.670,242.800 161.919 M231.444 164.200 C 231.773 165.671,232.002 165.990,231.994 164.967 C 231.991 164.545,231.805 163.930,231.582 163.600 C 231.285 163.162,231.248 163.324,231.444 164.200 M227.331 167.000 C 227.333 168.540,227.405 169.121,227.492 168.291 C 227.579 167.461,227.577 166.201,227.489 165.491 C 227.400 164.781,227.329 165.460,227.331 167.000 M244.733 168.042 C 243.486 169.335,242.777 170.226,243.158 170.023 C 243.879 169.637,247.200 166.174,247.200 165.809 C 247.200 165.490,247.157 165.529,244.733 168.042 M232.075 168.400 C 232.080 170.700,232.120 170.834,232.422 169.560 C 232.612 168.757,232.609 167.606,232.416 166.960 C 232.137 166.029,232.070 166.313,232.075 168.400 M226.435 170.907 C 224.502 175.992,216.977 177.604,212.200 173.956 L 211.000 173.040 211.800 173.976 C 214.476 177.109,220.738 177.220,224.330 174.198 C 225.704 173.042,227.416 170.483,227.057 170.123 C 226.928 169.995,226.648 170.347,226.435 170.907 M238.100 171.796 C 237.282 172.152,236.817 172.628,236.846 173.081 C 236.889 173.739,236.908 173.741,237.074 173.108 C 237.179 172.709,237.921 172.237,238.828 171.993 C 239.693 171.760,240.400 171.486,240.400 171.385 C 240.400 171.048,239.417 171.224,238.100 171.796 M179.000 207.600 C 178.074 211.815,177.142 211.656,202.000 211.511 L 222.200 211.392 201.329 211.296 C 182.972 211.212,180.381 211.124,179.829 210.571 C 179.085 209.828,179.000 207.960,179.680 207.280 C 180.372 206.588,222.828 206.588,223.520 207.280 C 223.893 207.653,224.000 207.609,224.000 207.080 C 224.000 206.448,222.418 206.400,201.632 206.400 L 179.264 206.400 179.000 207.600 M186.271 214.262 C 185.810 214.724,185.973 218.213,186.480 218.720 C 186.788 219.028,188.363 219.200,190.875 219.200 L 194.789 219.200 195.346 220.533 C 197.127 224.794,203.413 224.714,205.197 220.408 L 205.697 219.200 211.000 219.200 C 217.109 219.200,217.312 219.098,217.123 216.131 L 217.000 214.200 201.771 214.095 C 193.396 214.038,186.421 214.113,186.271 214.262 M216.800 216.400 L 216.800 218.400 211.180 218.400 L 205.559 218.400 204.958 219.839 C 203.015 224.489,197.639 224.524,195.505 219.900 L 194.813 218.400 190.606 218.400 L 186.400 218.400 186.400 216.400 L 186.400 214.400 201.600 214.400 L 216.800 214.400 216.800 216.400 M101.099 226.634 C 100.935 226.799,100.800 234.370,100.800 243.459 L 100.800 259.985 101.778 260.230 C 104.027 260.795,114.190 260.231,115.338 259.478 C 118.064 257.690,119.399 247.086,117.243 244.345 C 116.499 243.400,116.499 243.365,117.243 242.447 C 119.405 239.776,118.062 229.109,115.338 227.322 C 114.177 226.560,101.773 225.961,101.099 226.634 M115.320 227.767 C 117.747 229.395,118.868 240.329,116.800 242.200 C 116.360 242.598,116.000 243.084,116.000 243.279 C 116.000 243.474,116.360 244.020,116.800 244.492 C 117.516 245.261,117.600 245.904,117.600 250.614 C 117.600 259.275,116.674 260.097,107.117 259.911 L 101.400 259.800 101.295 243.801 C 101.238 235.001,101.284 227.557,101.399 227.259 C 101.752 226.338,113.849 226.780,115.320 227.767 M124.100 230.846 C 123.719 231.238,123.600 234.756,123.600 245.637 C 123.600 261.603,123.356 260.400,126.600 260.400 C 129.613 260.400,129.600 260.419,129.600 255.733 L 129.600 251.552 131.100 251.676 L 132.600 251.800 133.600 255.600 C 134.888 260.493,134.812 260.401,137.524 260.394 C 141.031 260.384,141.016 260.418,139.776 255.152 L 138.700 250.583 139.750 249.036 C 142.304 245.271,141.080 233.244,137.955 231.401 C 136.247 230.394,124.980 229.943,124.100 230.846 M152.674 231.118 C 152.009 231.853,150.184 238.718,150.556 239.089 C 150.669 239.202,150.866 238.778,150.994 238.147 C 151.123 237.516,151.402 236.447,151.614 235.772 C 151.826 235.096,152.000 234.249,152.000 233.890 C 152.000 231.611,152.741 231.164,156.322 231.285 L 159.703 231.400 163.052 244.788 C 167.140 261.133,167.068 260.000,164.016 260.000 L 161.632 260.000 161.169 258.300 C 160.047 254.181,160.618 254.614,156.135 254.487 L 152.134 254.373 151.600 256.687 C 150.884 259.788,150.665 260.000,148.175 260.000 C 145.437 260.000,145.475 260.140,146.819 254.996 C 147.450 252.578,147.958 250.240,147.947 249.800 C 147.936 249.360,147.325 251.335,146.588 254.189 C 145.038 260.196,145.092 260.400,148.220 260.400 C 150.818 260.400,151.301 259.966,151.955 257.045 L 152.457 254.800 156.184 254.800 L 159.911 254.800 160.192 256.300 C 160.871 259.923,161.306 260.400,163.931 260.400 C 165.340 260.400,166.470 260.197,166.717 259.900 C 167.243 259.266,160.348 231.266,159.540 230.755 C 158.459 230.069,153.380 230.339,152.674 231.118 M172.229 231.029 C 171.406 231.851,171.266 259.106,172.080 259.920 C 172.578 260.418,176.258 260.583,177.367 260.157 C 178.195 259.840,178.342 231.702,177.520 230.880 C 176.803 230.163,172.987 230.270,172.229 231.029 M184.080 230.880 C 183.258 231.702,183.405 259.840,184.233 260.157 C 188.568 261.821,189.560 260.477,189.690 252.771 L 189.800 246.200 193.400 253.200 L 197.000 260.200 198.931 260.323 C 202.155 260.529,202.000 261.283,202.000 245.431 C 202.000 229.644,202.152 230.400,198.969 230.400 C 196.067 230.400,196.036 230.479,195.910 238.229 L 195.800 245.000 192.251 238.000 C 190.300 234.150,188.500 230.868,188.251 230.706 C 187.527 230.234,184.604 230.356,184.080 230.880 M234.200 230.675 C 241.103 230.963,247.510 230.975,247.339 230.700 C 247.237 230.535,243.608 230.436,239.276 230.479 C 234.944 230.523,232.660 230.611,234.200 230.675 M256.586 230.698 C 257.899 230.779,259.249 231.060,259.586 231.323 C 260.124 231.741,260.132 231.713,259.651 231.100 C 259.221 230.552,258.571 230.416,256.651 230.476 L 254.200 230.551 256.586 230.698 M274.662 230.700 C 274.560 230.865,275.314 230.947,276.338 230.883 C 279.512 230.684,279.909 230.511,277.324 230.454 C 275.962 230.425,274.764 230.535,274.662 230.700 M138.633 232.554 L 140.200 233.908 140.341 240.330 C 140.486 246.894,140.419 247.308,138.791 249.878 C 138.306 250.645,138.348 251.205,139.121 254.278 C 140.524 259.847,140.483 260.000,137.616 260.000 L 135.232 260.000 134.811 258.500 C 134.579 257.675,134.072 255.740,133.684 254.200 L 132.979 251.400 131.189 251.400 L 129.400 251.400 129.200 255.600 L 129.000 259.800 126.600 259.800 L 124.200 259.800 124.095 245.500 L 123.990 231.200 130.528 231.200 L 137.067 231.200 138.633 232.554 M177.505 245.500 L 177.400 259.800 174.800 259.800 L 172.200 259.800 172.095 246.002 C 171.971 229.776,171.692 231.200,174.992 231.200 L 177.610 231.200 177.505 245.500 M191.914 238.390 C 196.312 247.462,196.353 247.463,196.491 238.500 L 196.600 231.400 199.105 231.281 L 201.610 231.162 201.505 245.481 L 201.400 259.800 199.330 259.920 L 197.261 260.040 193.602 252.626 C 191.590 248.548,189.776 245.109,189.572 244.983 C 189.348 244.845,189.198 247.438,189.195 251.476 C 189.187 260.313,189.267 260.067,186.449 259.918 L 184.200 259.800 184.095 245.500 L 183.990 231.200 186.209 231.200 L 188.428 231.200 191.914 238.390 M274.180 245.600 C 274.180 253.410,274.234 256.605,274.299 252.700 C 274.365 248.795,274.365 242.405,274.299 238.500 C 274.234 234.595,274.180 237.790,274.180 245.600 M107.285 232.339 C 106.907 232.579,106.800 233.729,106.885 236.633 L 107.000 240.600 108.931 240.723 C 111.737 240.902,112.000 240.528,112.000 236.365 C 112.000 233.278,111.902 232.776,111.226 232.414 C 110.307 231.922,108.011 231.878,107.285 232.339 M215.905 232.683 C 216.402 232.779,217.122 232.775,217.505 232.675 C 217.887 232.575,217.480 232.496,216.600 232.501 C 215.720 232.505,215.407 232.587,215.905 232.683 M111.600 236.382 L 111.600 239.964 110.240 240.219 C 107.583 240.717,107.413 240.534,107.282 237.031 C 107.127 232.880,107.171 232.800,109.587 232.800 L 111.600 232.800 111.600 236.382 M129.700 236.446 C 128.929 237.239,129.015 244.948,129.802 245.602 C 130.581 246.248,134.356 245.913,134.837 245.155 C 135.479 244.140,135.277 237.362,134.587 236.789 C 133.698 236.052,130.314 235.814,129.700 236.446 M134.320 237.280 C 134.616 237.576,134.800 239.025,134.800 241.051 C 134.800 245.095,134.376 245.696,131.651 245.520 L 129.800 245.400 129.684 241.630 C 129.620 239.557,129.660 237.622,129.772 237.330 C 130.031 236.653,133.653 236.613,134.320 237.280 M236.928 239.600 C 236.928 241.030,237.001 241.615,237.089 240.900 C 237.178 240.185,237.178 239.015,237.089 238.300 C 237.001 237.585,236.928 238.170,236.928 239.600 M221.107 238.290 C 221.826 238.379,222.906 238.377,223.507 238.286 C 224.108 238.195,223.520 238.122,222.200 238.124 C 220.880 238.126,220.388 238.201,221.107 238.290 M155.700 240.305 C 155.111 241.950,154.395 245.119,154.436 245.906 C 154.470 246.566,154.733 245.775,155.658 242.231 C 155.962 241.068,156.161 240.809,156.428 241.231 C 156.693 241.651,156.789 241.517,156.794 240.724 C 156.802 239.229,156.173 238.988,155.700 240.305 M150.049 240.000 C 150.016 240.330,149.889 241.050,149.767 241.600 C 149.575 242.464,149.607 242.503,149.999 241.888 C 150.248 241.497,150.375 240.777,150.281 240.288 C 150.186 239.800,150.082 239.670,150.049 240.000 M156.805 242.500 C 156.807 242.775,157.075 243.990,157.400 245.200 C 158.327 248.654,158.278 248.800,156.200 248.800 C 154.509 248.800,154.398 248.733,154.375 247.700 L 154.349 246.600 153.960 247.574 C 153.298 249.231,153.763 249.655,156.092 249.521 C 158.652 249.374,158.769 249.058,157.796 244.929 C 157.153 242.198,156.794 241.317,156.805 242.500 M149.249 243.200 C 149.216 243.530,149.089 244.250,148.967 244.800 C 148.775 245.664,148.807 245.703,149.199 245.088 C 149.448 244.697,149.575 243.977,149.481 243.488 C 149.386 243.000,149.282 242.870,149.249 243.200 M107.300 246.265 C 106.947 246.407,106.800 247.638,106.800 250.452 L 106.800 254.438 109.300 254.319 L 111.800 254.200 111.914 250.350 C 112.024 246.634,111.996 246.492,111.114 246.256 C 110.048 245.970,108.019 245.975,107.300 246.265 M148.449 246.400 C 148.416 246.730,148.289 247.450,148.167 248.000 C 147.975 248.864,148.007 248.903,148.399 248.288 C 148.648 247.897,148.775 247.177,148.681 246.688 C 148.586 246.200,148.482 246.070,148.449 246.400 M110.967 246.643 C 111.479 246.839,111.600 247.568,111.600 250.443 L 111.600 254.000 109.400 254.000 L 107.200 254.000 107.200 250.467 C 107.200 248.523,107.320 246.813,107.467 246.667 C 107.800 246.333,110.120 246.318,110.967 246.643 M221.107 248.690 C 221.826 248.779,222.906 248.777,223.507 248.686 C 224.108 248.595,223.520 248.522,222.200 248.524 C 220.880 248.526,220.388 248.601,221.107 248.690 M236.966 251.600 L 237.000 254.200 241.800 254.218 L 246.600 254.237 241.919 254.106 L 237.238 253.976 237.085 251.488 L 236.933 249.000 236.966 251.600 M214.765 254.126 C 214.944 254.305,215.881 254.391,216.846 254.318 L 218.600 254.185 216.519 253.993 C 215.375 253.887,214.585 253.947,214.765 254.126 M261.913 254.295 C 263.076 254.376,264.876 254.376,265.913 254.293 C 266.951 254.211,266.000 254.145,263.800 254.146 C 261.600 254.147,260.751 254.214,261.913 254.295 M282.713 254.295 C 283.876 254.376,285.676 254.376,286.713 254.293 C 287.751 254.211,286.800 254.145,284.600 254.146 C 282.400 254.147,281.551 254.214,282.713 254.295 M289.320 257.200 C 289.320 258.410,289.395 258.905,289.487 258.300 C 289.578 257.695,289.578 256.705,289.487 256.100 C 289.395 255.495,289.320 255.990,289.320 257.200 M214.713 260.295 C 215.876 260.376,217.676 260.376,218.713 260.293 C 219.751 260.211,218.800 260.145,216.600 260.146 C 214.400 260.147,213.551 260.214,214.713 260.295 M235.521 260.299 C 237.788 260.370,241.388 260.370,243.521 260.298 C 245.655 260.226,243.800 260.168,239.400 260.168 C 235.000 260.168,233.255 260.227,235.521 260.299 M257.700 260.298 C 259.625 260.371,262.775 260.371,264.700 260.298 C 266.625 260.225,265.050 260.165,261.200 260.165 C 257.350 260.165,255.775 260.225,257.700 260.298 M278.100 260.298 C 280.025 260.371,283.175 260.371,285.100 260.298 C 287.025 260.225,285.450 260.165,281.600 260.165 C 277.750 260.165,276.175 260.225,278.100 260.298 " stroke="none" fill="#2c5441" fill-rule="evenodd"></path></g></svg>